<mxfile host="app.diagrams.net" modified="2021-03-15T14:32:52.001Z" agent="5.0 (Windows NT 10.0; Win64; x64) AppleWebKit/537.36 (KHTML, like Gecko) Chrome/89.0.4389.82 Safari/537.36" etag="waaYrFBet7wao7rfJHjY" version="14.4.8" type="github">
  <diagram name="Page-1" id="efa7a0a1-bf9b-a30e-e6df-94a7791c09e9">
    <mxGraphModel dx="1460" dy="762" grid="1" gridSize="10" guides="1" tooltips="1" connect="1" arrows="1" fold="1" page="1" pageScale="1" pageWidth="826" pageHeight="1169" background="#ffffff" math="0" shadow="0">
      <root>
        <mxCell id="0" />
        <mxCell id="1" parent="0" />
        <mxCell id="um7V8yeOU8bJLNrAl1ep-114" value="Products Catalog" style="shape=table;startSize=30;container=1;collapsible=1;childLayout=tableLayout;fixedRows=1;rowLines=0;fontStyle=1;align=center;resizeLast=1;" vertex="1" parent="1">
          <mxGeometry x="60" y="40" width="180" height="250" as="geometry" />
        </mxCell>
        <mxCell id="um7V8yeOU8bJLNrAl1ep-115" value="" style="shape=partialRectangle;collapsible=0;dropTarget=0;pointerEvents=0;fillColor=none;top=0;left=0;bottom=1;right=0;points=[[0,0.5],[1,0.5]];portConstraint=eastwest;" vertex="1" parent="um7V8yeOU8bJLNrAl1ep-114">
          <mxGeometry y="30" width="180" height="30" as="geometry" />
        </mxCell>
        <mxCell id="um7V8yeOU8bJLNrAl1ep-116" value="PK" style="shape=partialRectangle;connectable=0;fillColor=none;top=0;left=0;bottom=0;right=0;fontStyle=1;overflow=hidden;" vertex="1" parent="um7V8yeOU8bJLNrAl1ep-115">
          <mxGeometry width="30" height="30" as="geometry" />
        </mxCell>
        <mxCell id="um7V8yeOU8bJLNrAl1ep-117" value="ProductID" style="shape=partialRectangle;connectable=0;fillColor=none;top=0;left=0;bottom=0;right=0;align=left;spacingLeft=6;fontStyle=5;overflow=hidden;" vertex="1" parent="um7V8yeOU8bJLNrAl1ep-115">
          <mxGeometry x="30" width="150" height="30" as="geometry" />
        </mxCell>
        <mxCell id="um7V8yeOU8bJLNrAl1ep-144" style="shape=partialRectangle;collapsible=0;dropTarget=0;pointerEvents=0;fillColor=none;top=0;left=0;bottom=1;right=0;points=[[0,0.5],[1,0.5]];portConstraint=eastwest;" vertex="1" parent="um7V8yeOU8bJLNrAl1ep-114">
          <mxGeometry y="60" width="180" height="30" as="geometry" />
        </mxCell>
        <mxCell id="um7V8yeOU8bJLNrAl1ep-145" value="FK" style="shape=partialRectangle;connectable=0;fillColor=none;top=0;left=0;bottom=0;right=0;fontStyle=1;overflow=hidden;" vertex="1" parent="um7V8yeOU8bJLNrAl1ep-144">
          <mxGeometry width="30" height="30" as="geometry" />
        </mxCell>
        <mxCell id="um7V8yeOU8bJLNrAl1ep-146" value="Manufacturer ID" style="shape=partialRectangle;connectable=0;fillColor=none;top=0;left=0;bottom=0;right=0;align=left;spacingLeft=6;fontStyle=5;overflow=hidden;" vertex="1" parent="um7V8yeOU8bJLNrAl1ep-144">
          <mxGeometry x="30" width="150" height="30" as="geometry" />
        </mxCell>
        <mxCell id="um7V8yeOU8bJLNrAl1ep-141" style="shape=partialRectangle;collapsible=0;dropTarget=0;pointerEvents=0;fillColor=none;top=0;left=0;bottom=1;right=0;points=[[0,0.5],[1,0.5]];portConstraint=eastwest;" vertex="1" parent="um7V8yeOU8bJLNrAl1ep-114">
          <mxGeometry y="90" width="180" height="30" as="geometry" />
        </mxCell>
        <mxCell id="um7V8yeOU8bJLNrAl1ep-142" value="FK" style="shape=partialRectangle;connectable=0;fillColor=none;top=0;left=0;bottom=0;right=0;fontStyle=1;overflow=hidden;" vertex="1" parent="um7V8yeOU8bJLNrAl1ep-141">
          <mxGeometry width="30" height="30" as="geometry" />
        </mxCell>
        <mxCell id="um7V8yeOU8bJLNrAl1ep-143" value="Catalog ID" style="shape=partialRectangle;connectable=0;fillColor=none;top=0;left=0;bottom=0;right=0;align=left;spacingLeft=6;fontStyle=5;overflow=hidden;" vertex="1" parent="um7V8yeOU8bJLNrAl1ep-141">
          <mxGeometry x="30" width="150" height="30" as="geometry" />
        </mxCell>
        <mxCell id="um7V8yeOU8bJLNrAl1ep-118" value="" style="shape=partialRectangle;collapsible=0;dropTarget=0;pointerEvents=0;fillColor=none;top=0;left=0;bottom=0;right=0;points=[[0,0.5],[1,0.5]];portConstraint=eastwest;" vertex="1" parent="um7V8yeOU8bJLNrAl1ep-114">
          <mxGeometry y="120" width="180" height="30" as="geometry" />
        </mxCell>
        <mxCell id="um7V8yeOU8bJLNrAl1ep-119" value="" style="shape=partialRectangle;connectable=0;fillColor=none;top=0;left=0;bottom=0;right=0;editable=1;overflow=hidden;" vertex="1" parent="um7V8yeOU8bJLNrAl1ep-118">
          <mxGeometry width="30" height="30" as="geometry" />
        </mxCell>
        <mxCell id="um7V8yeOU8bJLNrAl1ep-120" value="Product Name" style="shape=partialRectangle;connectable=0;fillColor=none;top=0;left=0;bottom=0;right=0;align=left;spacingLeft=6;overflow=hidden;" vertex="1" parent="um7V8yeOU8bJLNrAl1ep-118">
          <mxGeometry x="30" width="150" height="30" as="geometry" />
        </mxCell>
        <mxCell id="um7V8yeOU8bJLNrAl1ep-121" value="" style="shape=partialRectangle;collapsible=0;dropTarget=0;pointerEvents=0;fillColor=none;top=0;left=0;bottom=0;right=0;points=[[0,0.5],[1,0.5]];portConstraint=eastwest;" vertex="1" parent="um7V8yeOU8bJLNrAl1ep-114">
          <mxGeometry y="150" width="180" height="30" as="geometry" />
        </mxCell>
        <mxCell id="um7V8yeOU8bJLNrAl1ep-122" value="" style="shape=partialRectangle;connectable=0;fillColor=none;top=0;left=0;bottom=0;right=0;editable=1;overflow=hidden;" vertex="1" parent="um7V8yeOU8bJLNrAl1ep-121">
          <mxGeometry width="30" height="30" as="geometry" />
        </mxCell>
        <mxCell id="um7V8yeOU8bJLNrAl1ep-123" value="Product Description" style="shape=partialRectangle;connectable=0;fillColor=none;top=0;left=0;bottom=0;right=0;align=left;spacingLeft=6;overflow=hidden;" vertex="1" parent="um7V8yeOU8bJLNrAl1ep-121">
          <mxGeometry x="30" width="150" height="30" as="geometry" />
        </mxCell>
        <mxCell id="um7V8yeOU8bJLNrAl1ep-124" value="" style="shape=partialRectangle;collapsible=0;dropTarget=0;pointerEvents=0;fillColor=none;top=0;left=0;bottom=0;right=0;points=[[0,0.5],[1,0.5]];portConstraint=eastwest;" vertex="1" parent="um7V8yeOU8bJLNrAl1ep-114">
          <mxGeometry y="180" width="180" height="30" as="geometry" />
        </mxCell>
        <mxCell id="um7V8yeOU8bJLNrAl1ep-125" value="" style="shape=partialRectangle;connectable=0;fillColor=none;top=0;left=0;bottom=0;right=0;editable=1;overflow=hidden;" vertex="1" parent="um7V8yeOU8bJLNrAl1ep-124">
          <mxGeometry width="30" height="30" as="geometry" />
        </mxCell>
        <mxCell id="um7V8yeOU8bJLNrAl1ep-126" value="Product Type" style="shape=partialRectangle;connectable=0;fillColor=none;top=0;left=0;bottom=0;right=0;align=left;spacingLeft=6;overflow=hidden;" vertex="1" parent="um7V8yeOU8bJLNrAl1ep-124">
          <mxGeometry x="30" width="150" height="30" as="geometry" />
        </mxCell>
        <mxCell id="um7V8yeOU8bJLNrAl1ep-147" style="shape=partialRectangle;collapsible=0;dropTarget=0;pointerEvents=0;fillColor=none;top=0;left=0;bottom=0;right=0;points=[[0,0.5],[1,0.5]];portConstraint=eastwest;" vertex="1" parent="um7V8yeOU8bJLNrAl1ep-114">
          <mxGeometry y="210" width="180" height="30" as="geometry" />
        </mxCell>
        <mxCell id="um7V8yeOU8bJLNrAl1ep-148" style="shape=partialRectangle;connectable=0;fillColor=none;top=0;left=0;bottom=0;right=0;editable=1;overflow=hidden;" vertex="1" parent="um7V8yeOU8bJLNrAl1ep-147">
          <mxGeometry width="30" height="30" as="geometry" />
        </mxCell>
        <mxCell id="um7V8yeOU8bJLNrAl1ep-149" value="SKU Number" style="shape=partialRectangle;connectable=0;fillColor=none;top=0;left=0;bottom=0;right=0;align=left;spacingLeft=6;overflow=hidden;" vertex="1" parent="um7V8yeOU8bJLNrAl1ep-147">
          <mxGeometry x="30" width="150" height="30" as="geometry" />
        </mxCell>
        <mxCell id="um7V8yeOU8bJLNrAl1ep-151" value="Table" style="shape=table;startSize=30;container=1;collapsible=1;childLayout=tableLayout;fixedRows=1;rowLines=0;fontStyle=1;align=center;resizeLast=1;" vertex="1" parent="1">
          <mxGeometry x="323" y="40" width="180" height="160" as="geometry" />
        </mxCell>
        <mxCell id="um7V8yeOU8bJLNrAl1ep-152" value="" style="shape=partialRectangle;collapsible=0;dropTarget=0;pointerEvents=0;fillColor=none;top=0;left=0;bottom=1;right=0;points=[[0,0.5],[1,0.5]];portConstraint=eastwest;" vertex="1" parent="um7V8yeOU8bJLNrAl1ep-151">
          <mxGeometry y="30" width="180" height="30" as="geometry" />
        </mxCell>
        <mxCell id="um7V8yeOU8bJLNrAl1ep-153" value="PK" style="shape=partialRectangle;connectable=0;fillColor=none;top=0;left=0;bottom=0;right=0;fontStyle=1;overflow=hidden;" vertex="1" parent="um7V8yeOU8bJLNrAl1ep-152">
          <mxGeometry width="30" height="30" as="geometry" />
        </mxCell>
        <mxCell id="um7V8yeOU8bJLNrAl1ep-154" value="UniqueID" style="shape=partialRectangle;connectable=0;fillColor=none;top=0;left=0;bottom=0;right=0;align=left;spacingLeft=6;fontStyle=5;overflow=hidden;" vertex="1" parent="um7V8yeOU8bJLNrAl1ep-152">
          <mxGeometry x="30" width="150" height="30" as="geometry" />
        </mxCell>
        <mxCell id="um7V8yeOU8bJLNrAl1ep-155" value="" style="shape=partialRectangle;collapsible=0;dropTarget=0;pointerEvents=0;fillColor=none;top=0;left=0;bottom=0;right=0;points=[[0,0.5],[1,0.5]];portConstraint=eastwest;" vertex="1" parent="um7V8yeOU8bJLNrAl1ep-151">
          <mxGeometry y="60" width="180" height="30" as="geometry" />
        </mxCell>
        <mxCell id="um7V8yeOU8bJLNrAl1ep-156" value="" style="shape=partialRectangle;connectable=0;fillColor=none;top=0;left=0;bottom=0;right=0;editable=1;overflow=hidden;" vertex="1" parent="um7V8yeOU8bJLNrAl1ep-155">
          <mxGeometry width="30" height="30" as="geometry" />
        </mxCell>
        <mxCell id="um7V8yeOU8bJLNrAl1ep-157" value="Row 1" style="shape=partialRectangle;connectable=0;fillColor=none;top=0;left=0;bottom=0;right=0;align=left;spacingLeft=6;overflow=hidden;" vertex="1" parent="um7V8yeOU8bJLNrAl1ep-155">
          <mxGeometry x="30" width="150" height="30" as="geometry" />
        </mxCell>
        <mxCell id="um7V8yeOU8bJLNrAl1ep-158" value="" style="shape=partialRectangle;collapsible=0;dropTarget=0;pointerEvents=0;fillColor=none;top=0;left=0;bottom=0;right=0;points=[[0,0.5],[1,0.5]];portConstraint=eastwest;" vertex="1" parent="um7V8yeOU8bJLNrAl1ep-151">
          <mxGeometry y="90" width="180" height="30" as="geometry" />
        </mxCell>
        <mxCell id="um7V8yeOU8bJLNrAl1ep-159" value="" style="shape=partialRectangle;connectable=0;fillColor=none;top=0;left=0;bottom=0;right=0;editable=1;overflow=hidden;" vertex="1" parent="um7V8yeOU8bJLNrAl1ep-158">
          <mxGeometry width="30" height="30" as="geometry" />
        </mxCell>
        <mxCell id="um7V8yeOU8bJLNrAl1ep-160" value="Row 2" style="shape=partialRectangle;connectable=0;fillColor=none;top=0;left=0;bottom=0;right=0;align=left;spacingLeft=6;overflow=hidden;" vertex="1" parent="um7V8yeOU8bJLNrAl1ep-158">
          <mxGeometry x="30" width="150" height="30" as="geometry" />
        </mxCell>
        <mxCell id="um7V8yeOU8bJLNrAl1ep-161" value="" style="shape=partialRectangle;collapsible=0;dropTarget=0;pointerEvents=0;fillColor=none;top=0;left=0;bottom=0;right=0;points=[[0,0.5],[1,0.5]];portConstraint=eastwest;" vertex="1" parent="um7V8yeOU8bJLNrAl1ep-151">
          <mxGeometry y="120" width="180" height="30" as="geometry" />
        </mxCell>
        <mxCell id="um7V8yeOU8bJLNrAl1ep-162" value="" style="shape=partialRectangle;connectable=0;fillColor=none;top=0;left=0;bottom=0;right=0;editable=1;overflow=hidden;" vertex="1" parent="um7V8yeOU8bJLNrAl1ep-161">
          <mxGeometry width="30" height="30" as="geometry" />
        </mxCell>
        <mxCell id="um7V8yeOU8bJLNrAl1ep-163" value="Row 3" style="shape=partialRectangle;connectable=0;fillColor=none;top=0;left=0;bottom=0;right=0;align=left;spacingLeft=6;overflow=hidden;" vertex="1" parent="um7V8yeOU8bJLNrAl1ep-161">
          <mxGeometry x="30" width="150" height="30" as="geometry" />
        </mxCell>
      </root>
    </mxGraphModel>
  </diagram>
</mxfile>
